<mxfile host="65bd71144e">
    <diagram id="_BOV__6qpsjE46C9OWkt" name="Страница 1">
        <mxGraphModel dx="1205" dy="1436" grid="1" gridSize="3" guides="1" tooltips="1" connect="1" arrows="1" fold="1" page="0" pageScale="1" pageWidth="827" pageHeight="1169" background="#ffffff" math="0" shadow="0">
            <root>
                <mxCell id="0"/>
                <mxCell id="1" parent="0"/>
                <mxCell id="4" style="edgeStyle=none;html=1;entryX=0;entryY=0.5;entryDx=0;entryDy=0;strokeColor=#000000;" edge="1" parent="1" source="2" target="3">
                    <mxGeometry relative="1" as="geometry"/>
                </mxCell>
                <mxCell id="2" value="" style="aspect=fixed;perimeter=ellipsePerimeter;html=1;align=center;shadow=0;dashed=0;spacingTop=3;image;image=img/lib/active_directory/internet_globe.svg;" vertex="1" parent="1">
                    <mxGeometry x="40" y="280" width="40" height="40" as="geometry"/>
                </mxCell>
                <mxCell id="14" style="edgeStyle=none;rounded=1;html=1;exitX=1;exitY=0.5;exitDx=0;exitDy=0;entryX=0;entryY=0.5;entryDx=0;entryDy=0;strokeColor=#000000;fontSize=12;fontColor=#000000;startArrow=none;startFill=0;" edge="1" parent="1" source="3" target="13">
                    <mxGeometry relative="1" as="geometry"/>
                </mxCell>
                <mxCell id="3" value="&lt;font color=&quot;#000000&quot;&gt;/front/signin&lt;/font&gt;" style="swimlane;whiteSpace=wrap;html=1;labelBorderColor=#FFFFFF;strokeColor=#000000;fillColor=#FFFFFF;" vertex="1" parent="1">
                    <mxGeometry x="130" y="135" width="410" height="330" as="geometry"/>
                </mxCell>
                <mxCell id="7" value="" style="swimlane;startSize=0;strokeColor=#000000;" vertex="1" parent="3">
                    <mxGeometry x="105" y="65" width="200" height="200" as="geometry"/>
                </mxCell>
                <mxCell id="8" value="&lt;b&gt;Войти&lt;/b&gt;" style="text;html=1;strokeColor=none;fillColor=none;align=center;verticalAlign=middle;whiteSpace=wrap;rounded=0;fontColor=#000000;" vertex="1" parent="7">
                    <mxGeometry x="40" y="10" width="130" height="30" as="geometry"/>
                </mxCell>
                <mxCell id="9" value="email ..." style="strokeWidth=1;html=1;shadow=0;dashed=0;shape=mxgraph.ios.iTextInput;strokeColor=#444444;buttonText=;fontSize=12;whiteSpace=wrap;align=center;fontColor=#000000;labelBackgroundColor=#FFFFFF;fillColor=#FFFFFF;spacingLeft=3;" vertex="1" parent="7">
                    <mxGeometry x="36.25" y="70" width="123.75" height="30" as="geometry"/>
                </mxCell>
                <mxCell id="10" value="Войти" style="rounded=1;html=1;shadow=0;dashed=0;whiteSpace=wrap;fontSize=10;fillColor=#a20025;align=center;strokeColor=#6F0000;fontColor=#ffffff;labelBackgroundColor=none;" vertex="1" parent="7">
                    <mxGeometry x="36.25" y="120" width="123.75" height="25" as="geometry"/>
                </mxCell>
                <mxCell id="20" style="edgeStyle=none;rounded=1;html=1;exitX=1;exitY=0.5;exitDx=0;exitDy=0;entryX=0;entryY=0.5;entryDx=0;entryDy=0;strokeColor=#000000;fontSize=12;fontColor=#000000;startArrow=none;startFill=0;" edge="1" parent="1" source="13" target="15">
                    <mxGeometry relative="1" as="geometry"/>
                </mxCell>
                <mxCell id="21" value="&lt;span style=&quot;background-color: rgb(255, 255, 255);&quot;&gt;(1)&lt;/span&gt;" style="edgeLabel;html=1;align=center;verticalAlign=middle;resizable=0;points=[];fontSize=12;fontColor=#000000;" vertex="1" connectable="0" parent="20">
                    <mxGeometry x="0.1247" y="2" relative="1" as="geometry">
                        <mxPoint x="1" as="offset"/>
                    </mxGeometry>
                </mxCell>
                <mxCell id="31" style="edgeStyle=none;rounded=1;html=1;exitX=1;exitY=0.5;exitDx=0;exitDy=0;entryX=0;entryY=0.5;entryDx=0;entryDy=0;strokeColor=#000000;fontSize=12;fontColor=#000000;startArrow=none;startFill=0;" edge="1" parent="1" source="13" target="25">
                    <mxGeometry relative="1" as="geometry"/>
                </mxCell>
                <mxCell id="32" value="&lt;span style=&quot;background-color: rgb(255, 255, 255);&quot;&gt;(2)&lt;/span&gt;" style="edgeLabel;html=1;align=center;verticalAlign=middle;resizable=0;points=[];fontSize=12;fontColor=#000000;" vertex="1" connectable="0" parent="31">
                    <mxGeometry x="0.1567" relative="1" as="geometry">
                        <mxPoint as="offset"/>
                    </mxGeometry>
                </mxCell>
                <mxCell id="13" value="&lt;p style=&quot;font-family: &amp;quot;space mono&amp;quot;, Menlo, Monaco, &amp;quot;Courier New&amp;quot;, monospace; line-height: 18px;&quot;&gt;&lt;span style=&quot;background-color: rgb(255, 255, 255);&quot;&gt;&lt;b&gt;/back/signin&lt;/b&gt;&lt;/span&gt;&lt;/p&gt;&lt;p style=&quot;text-align: justify; font-family: &amp;quot;space mono&amp;quot;, Menlo, Monaco, &amp;quot;Courier New&amp;quot;, monospace; line-height: 18px;&quot;&gt;&lt;span style=&quot;background-color: rgb(255, 255, 255);&quot;&gt;&lt;b&gt;(1)&lt;span style=&quot;white-space: pre;&quot;&gt;&#9;&lt;/span&gt;Если пользователь зарегистирован в системе - отправляем ему одноразовый код на почту и переадресовывываем на страницу подтверждения этого кода&lt;/b&gt;&lt;/span&gt;&lt;/p&gt;&lt;p style=&quot;text-align: justify; font-family: &amp;quot;space mono&amp;quot;, Menlo, Monaco, &amp;quot;Courier New&amp;quot;, monospace; line-height: 18px;&quot;&gt;&lt;span style=&quot;background-color: rgb(255, 255, 255);&quot;&gt;&lt;b&gt;(2)&lt;span style=&quot;white-space: pre;&quot;&gt;&#9;&lt;/span&gt;Если пользователь не зарегистирован в системе - отправляем ему одноразовый код на почту и переадресовываем на страницу подтверждения этого кода и заполнения информации о себе&lt;/b&gt;&lt;/span&gt;&lt;/p&gt;" style="shape=process;whiteSpace=wrap;html=1;backgroundOutline=1;labelBackgroundColor=none;labelBorderColor=#FFFFFF;strokeColor=#000000;fontSize=12;fontColor=#000000;fillColor=#FFFFFF;" vertex="1" parent="1">
                    <mxGeometry x="579" y="135" width="420" height="330" as="geometry"/>
                </mxCell>
                <mxCell id="46" style="edgeStyle=none;rounded=1;html=1;exitX=1;exitY=0.5;exitDx=0;exitDy=0;entryX=0;entryY=0.5;entryDx=0;entryDy=0;strokeColor=#000000;fontSize=12;fontColor=#000000;startArrow=none;startFill=0;" edge="1" parent="1" source="15" target="44">
                    <mxGeometry relative="1" as="geometry"/>
                </mxCell>
                <mxCell id="15" value="&lt;font color=&quot;#000000&quot;&gt;/front/signin/confirm&lt;/font&gt;" style="swimlane;whiteSpace=wrap;html=1;labelBorderColor=#FFFFFF;strokeColor=#000000;fillColor=#FFFFFF;" vertex="1" parent="1">
                    <mxGeometry x="1044" y="-96" width="410" height="330" as="geometry"/>
                </mxCell>
                <mxCell id="16" value="" style="swimlane;startSize=0;strokeColor=#000000;" vertex="1" parent="15">
                    <mxGeometry x="105" y="65" width="200" height="200" as="geometry"/>
                </mxCell>
                <mxCell id="17" value="&lt;b&gt;Подтверждение&lt;/b&gt;" style="text;html=1;strokeColor=none;fillColor=none;align=center;verticalAlign=middle;whiteSpace=wrap;rounded=0;fontColor=#000000;" vertex="1" parent="16">
                    <mxGeometry x="33.13" y="10" width="130" height="30" as="geometry"/>
                </mxCell>
                <mxCell id="18" value="one-time-code ..." style="strokeWidth=1;html=1;shadow=0;dashed=0;shape=mxgraph.ios.iTextInput;strokeColor=#444444;buttonText=;fontSize=12;whiteSpace=wrap;align=center;fontColor=#000000;labelBackgroundColor=#FFFFFF;fillColor=#FFFFFF;spacingLeft=3;" vertex="1" parent="16">
                    <mxGeometry x="30" y="115" width="147" height="30" as="geometry"/>
                </mxCell>
                <mxCell id="19" value="Отправить" style="rounded=1;html=1;shadow=0;dashed=0;whiteSpace=wrap;fontSize=10;fillColor=#a20025;align=center;strokeColor=#6F0000;fontColor=#ffffff;labelBackgroundColor=none;" vertex="1" parent="16">
                    <mxGeometry x="30" y="160" width="147" height="25" as="geometry"/>
                </mxCell>
                <mxCell id="24" value="&lt;font style=&quot;background-color: rgb(255, 255, 255);&quot;&gt;На почту &amp;lt;sigin email&amp;gt; отправлено&lt;br style=&quot;&quot;&gt;письмо с одноразовым кодом доступа&lt;/font&gt;" style="text;html=1;strokeColor=none;fillColor=none;align=left;verticalAlign=middle;whiteSpace=wrap;rounded=0;labelBackgroundColor=#FFFFFF;labelBorderColor=#FFFFFF;fontSize=12;fontColor=#000000;" vertex="1" parent="16">
                    <mxGeometry x="30" y="43" width="146.87" height="58" as="geometry"/>
                </mxCell>
                <mxCell id="47" style="edgeStyle=none;rounded=1;html=1;exitX=1;exitY=0.5;exitDx=0;exitDy=0;entryX=0;entryY=0.5;entryDx=0;entryDy=0;strokeColor=#000000;fontSize=12;fontColor=#000000;startArrow=none;startFill=0;" edge="1" parent="1" source="25" target="44">
                    <mxGeometry relative="1" as="geometry"/>
                </mxCell>
                <mxCell id="25" value="&lt;font color=&quot;#000000&quot;&gt;/front/signup&lt;/font&gt;" style="swimlane;whiteSpace=wrap;html=1;labelBorderColor=#FFFFFF;strokeColor=#000000;fillColor=#FFFFFF;" vertex="1" parent="1">
                    <mxGeometry x="1044" y="306" width="410" height="330" as="geometry"/>
                </mxCell>
                <mxCell id="26" value="" style="swimlane;startSize=0;strokeColor=#000000;" vertex="1" parent="25">
                    <mxGeometry x="105" y="42" width="200" height="264" as="geometry"/>
                </mxCell>
                <mxCell id="27" value="&lt;b&gt;Регистрация&lt;/b&gt;" style="text;html=1;strokeColor=none;fillColor=none;align=center;verticalAlign=middle;whiteSpace=wrap;rounded=0;fontColor=#000000;" vertex="1" parent="26">
                    <mxGeometry x="33.13" y="10" width="130" height="30" as="geometry"/>
                </mxCell>
                <mxCell id="28" value="one-time-code ..." style="strokeWidth=1;html=1;shadow=0;dashed=0;shape=mxgraph.ios.iTextInput;strokeColor=#444444;buttonText=;fontSize=12;whiteSpace=wrap;align=center;fontColor=#000000;labelBackgroundColor=#FFFFFF;fillColor=#FFFFFF;spacingLeft=3;" vertex="1" parent="26">
                    <mxGeometry x="30" y="168" width="147" height="30" as="geometry"/>
                </mxCell>
                <mxCell id="29" value="Отправить" style="rounded=1;html=1;shadow=0;dashed=0;whiteSpace=wrap;fontSize=10;fillColor=#a20025;align=center;strokeColor=#6F0000;fontColor=#ffffff;labelBackgroundColor=none;" vertex="1" parent="26">
                    <mxGeometry x="30" y="214" width="147" height="25" as="geometry"/>
                </mxCell>
                <mxCell id="30" value="&lt;font style=&quot;background-color: rgb(255, 255, 255);&quot;&gt;На почту &amp;lt;sigin email&amp;gt; отправлено&lt;br style=&quot;&quot;&gt;письмо с одноразовым кодом доступа&lt;/font&gt;" style="text;html=1;strokeColor=none;fillColor=none;align=left;verticalAlign=middle;whiteSpace=wrap;rounded=0;labelBackgroundColor=#FFFFFF;labelBorderColor=#FFFFFF;fontSize=12;fontColor=#000000;" vertex="1" parent="26">
                    <mxGeometry x="30" y="43" width="146.87" height="58" as="geometry"/>
                </mxCell>
                <mxCell id="39" value="username ..." style="strokeWidth=1;html=1;shadow=0;dashed=0;shape=mxgraph.ios.iTextInput;strokeColor=#444444;buttonText=;fontSize=12;whiteSpace=wrap;align=center;fontColor=#000000;labelBackgroundColor=#FFFFFF;fillColor=#FFFFFF;spacingLeft=3;" vertex="1" parent="26">
                    <mxGeometry x="30" y="123" width="147" height="30" as="geometry"/>
                </mxCell>
                <mxCell id="41" value="/front/" style="swimlane;whiteSpace=wrap;html=1;labelBackgroundColor=#FFFFFF;labelBorderColor=#FFFFFF;strokeColor=#000000;fontSize=12;fontColor=#000000;fillColor=#FFFFFF;" vertex="1" parent="1">
                    <mxGeometry x="1836" y="-94.5" width="792" height="729" as="geometry"/>
                </mxCell>
                <mxCell id="48" style="edgeStyle=none;rounded=1;html=1;exitX=1;exitY=0.5;exitDx=0;exitDy=0;entryX=0;entryY=0.5;entryDx=0;entryDy=0;strokeColor=#000000;fontSize=12;fontColor=#000000;startArrow=none;startFill=0;" edge="1" parent="1" source="44" target="41">
                    <mxGeometry relative="1" as="geometry"/>
                </mxCell>
                <mxCell id="44" value="Устанавливаем id сессии в cookies" style="text;html=1;strokeColor=#000000;fillColor=none;align=center;verticalAlign=middle;whiteSpace=wrap;rounded=0;labelBackgroundColor=#FFFFFF;labelBorderColor=#FFFFFF;fontSize=12;fontColor=#000000;" vertex="1" parent="1">
                    <mxGeometry x="1629" y="229.5" width="120" height="81" as="geometry"/>
                </mxCell>
            </root>
        </mxGraphModel>
    </diagram>
</mxfile>